<svg width="35" height="35" viewBox="0 0 35 35" fill="none" xmlns="http://www.w3.org/2000/svg">
<path d="M17.5 2.91667C25.5413 2.91667 32.0833 9.45875 32.0833 17.5C32.0833 25.5413 25.5413 32.0833 17.5 32.0833C9.45875 32.0833 2.91667 25.5413 2.91667 17.5C2.91667 9.45875 9.45875 2.91667 17.5 2.91667ZM17.5 0C7.83563 0 0 7.83563 0 17.5C0 27.1644 7.83563 35 17.5 35C27.1644 35 35 27.1644 35 17.5C35 7.83563 27.1644 0 17.5 0ZM14.5833 14.5833H11.6667V17.5H14.5833V26.25H18.9583V17.5H21.6125L21.875 14.5833H18.9583V13.3685C18.9583 12.6715 19.0983 12.3958 19.7721 12.3958H21.875V8.75H18.3692C15.7471 8.75 14.5833 9.905 14.5833 12.1158V14.5833Z" fill="url(#paint0_linear)"/>
<defs>
<linearGradient id="paint0_linear" x1="17.5" y1="0" x2="17.5" y2="35" gradientUnits="userSpaceOnUse">
<stop stop-color="#482BFF"/>
<stop offset="1" stop-color="#7F60FF" stop-opacity="0.96"/>
</linearGradient>
</defs>
</svg>
