<svg width="40" height="40" viewBox="0 0 40 40" fill="none" xmlns="http://www.w3.org/2000/svg">
<path d="M25 20H8.33334V21.6667H25V20ZM18.3333 23.3333H8.33334V25H18.3333V23.3333ZM25 13.3333H8.33334V15H25V13.3333ZM25 16.6667H8.33334V18.3333H25V16.6667ZM25 6.66667H8.33334V8.33333H25V6.66667ZM25 10H8.33334V11.6667H25V10ZM37.4 27.1283C37.705 23.2717 36.6783 22.895 31.92 18.2583C32.205 20.2967 32.8 23.92 33.4383 26.5933C33.5867 27.23 32.745 27.6283 32.4617 26.9517C32.1217 26.1267 31.57 22.615 31.095 19.085C30.8383 17.195 28.3267 17.4267 28.3333 19.38C28.3417 22.4167 28.3383 24.9483 28.3333 29.4483C28.3283 33.2867 30.0767 33.3617 31.365 37.6667C31.585 38.4067 31.775 39.2117 31.93 39.9983L38.3333 37.7667C36.1017 33.3983 37.1783 29.9517 37.4 27.1283V27.1283ZM26.6867 30H5V3.33333H28.3333V16.49C29.41 15.92 30.58 16.0333 31.4617 16.6583L31.6667 16.6283V2.5C31.6667 1.12 30.5467 0 29.1667 0H4.16667C2.78667 0 1.66667 1.11833 1.66667 2.5V30.8333C1.66667 32.215 2.78667 33.3333 4.16667 33.3333H27.4567C27.0483 32.475 26.7483 31.46 26.6867 30Z" fill="url(#paint0_linear)"/>
<defs>
<linearGradient id="paint0_linear" x1="20" y1="0" x2="20" y2="39.9983" gradientUnits="userSpaceOnUse">
<stop stop-color="#3928FD"/>
<stop offset="1" stop-color="#F24040"/>
</linearGradient>
</defs>
</svg>
