<svg width="35" height="35" viewBox="0 0 35 35" fill="none" xmlns="http://www.w3.org/2000/svg">
<path d="M17.5 2.91667C25.5413 2.91667 32.0833 9.45875 32.0833 17.5C32.0833 25.5413 25.5413 32.0833 17.5 32.0833C9.45875 32.0833 2.91667 25.5413 2.91667 17.5C2.91667 9.45875 9.45875 2.91667 17.5 2.91667ZM17.5 0C7.83563 0 0 7.83563 0 17.5C0 27.1644 7.83563 35 17.5 35C27.1644 35 35 27.1644 35 17.5C35 7.83563 27.1644 0 17.5 0ZM17.5 10.3279C19.8363 10.3279 20.1133 10.3367 21.0365 10.379C23.4092 10.4869 24.5146 11.6113 24.624 13.965C24.6648 14.8881 24.6735 15.1638 24.6735 17.5C24.6735 19.8363 24.6648 20.1133 24.624 21.035C24.5146 23.3873 23.4106 24.5146 21.0365 24.6225C20.1133 24.6633 19.8377 24.6735 17.5 24.6735C15.1638 24.6735 14.8867 24.6648 13.965 24.6225C11.5879 24.5131 10.4869 23.3844 10.3775 21.035C10.3367 20.1133 10.3265 19.8363 10.3265 17.5C10.3265 15.1638 10.3367 14.8867 10.3775 13.965C10.4854 11.6098 11.5908 10.4854 13.965 10.3775C14.8867 10.3352 15.1638 10.3279 17.5 10.3279V10.3279ZM17.5 8.75C15.1229 8.75 14.8269 8.76021 13.8921 8.80396C10.7129 8.94979 8.94833 10.7129 8.8025 13.8921C8.76021 14.8269 8.75 15.1244 8.75 17.5C8.75 19.8771 8.76021 20.1746 8.8025 21.1079C8.94833 24.2856 10.7129 26.0517 13.8921 26.1975C14.8269 26.2398 15.1229 26.25 17.5 26.25C19.8771 26.25 20.1746 26.2398 21.1094 26.1975C24.2827 26.0517 26.0546 24.2885 26.1975 21.1079C26.2398 20.1746 26.25 19.8771 26.25 17.5C26.25 15.1244 26.2398 14.8269 26.1975 13.8921C26.0546 10.7173 24.2885 8.94833 21.1094 8.80396C20.1746 8.76021 19.8771 8.75 17.5 8.75V8.75ZM17.5 13.0069C15.0194 13.0069 13.0069 15.0179 13.0069 17.5C13.0069 19.9821 15.0194 21.9931 17.5 21.9931C19.9806 21.9931 21.9931 19.9821 21.9931 17.5C21.9931 15.0194 19.9806 13.0069 17.5 13.0069ZM17.5 20.4167C15.8885 20.4167 14.5833 19.1115 14.5833 17.5C14.5833 15.89 15.8885 14.5833 17.5 14.5833C19.11 14.5833 20.4181 15.8885 20.4181 17.5C20.4181 19.1115 19.11 20.4167 17.5 20.4167ZM22.1696 11.7804C21.5906 11.7804 21.1196 12.25 21.1196 12.8304C21.1196 13.4094 21.5892 13.8804 22.1696 13.8804C22.75 13.8804 23.221 13.4108 23.221 12.8304C23.221 12.25 22.7515 11.7804 22.1696 11.7804Z" fill="url(#paint0_linear)"/>
<defs>
<linearGradient id="paint0_linear" x1="17.5" y1="0" x2="17.5" y2="35" gradientUnits="userSpaceOnUse">
<stop stop-color="#EF5B3B"/>
<stop offset="0.9999" stop-color="#DAF053" stop-opacity="0.83"/>
<stop offset="1" stop-color="#CADB62" stop-opacity="0.54"/>
</linearGradient>
</defs>
</svg>
