<svg width="35" height="35" viewBox="0 0 35 35" fill="none" xmlns="http://www.w3.org/2000/svg">
<path d="M17.5 2.91667C25.5413 2.91667 32.0833 9.45875 32.0833 17.5C32.0833 25.5413 25.5413 32.0833 17.5 32.0833C9.45875 32.0833 2.91667 25.5413 2.91667 17.5C2.91667 9.45875 9.45875 2.91667 17.5 2.91667ZM17.5 0C7.83563 0 0 7.83563 0 17.5C0 27.1644 7.83563 35 17.5 35C27.1644 35 35 27.1644 35 17.5C35 7.83563 27.1644 0 17.5 0ZM26.9792 12.8013C26.336 13.0871 25.6433 13.2796 24.9171 13.3671C25.6594 12.9223 26.2267 12.2194 26.4965 11.3808C25.8023 11.7921 25.0337 12.091 24.2156 12.2515C23.5623 11.5529 22.6275 11.1169 21.5965 11.1169C19.2777 11.1169 17.5744 13.2796 18.0979 15.5254C15.1156 15.3752 12.4688 13.946 10.6983 11.7746C9.75771 13.3875 10.2112 15.4992 11.8096 16.5681C11.2219 16.5492 10.6692 16.3873 10.185 16.119C10.1456 17.7815 11.3385 19.3375 13.0652 19.6846C12.5606 19.8217 12.0065 19.8538 11.4435 19.7458C11.9 21.1721 13.2285 22.209 14.7977 22.2381C13.2854 23.4223 11.3852 23.9517 9.47917 23.7271C11.0688 24.7465 12.9544 25.34 14.9815 25.34C21.649 25.34 25.4144 19.7094 25.1869 14.6592C25.8898 14.1546 26.4979 13.5217 26.9792 12.8013V12.8013Z" fill="#3B73C6"/>
</svg>
