<svg width="35" height="35" viewBox="0 0 35 35" fill="none" xmlns="http://www.w3.org/2000/svg">
<path d="M12.1421 8.75H13.1935L13.9125 11.4494L14.5804 8.75H15.6406L14.4273 12.7633V15.5021H13.3831V12.7633L12.1421 8.75V8.75ZM16.9502 10.481C16.1335 10.481 15.5925 11.0206 15.5925 11.8183V14.261C15.5925 15.139 16.0504 15.5969 16.9502 15.5969C17.6954 15.5969 18.2817 15.0981 18.2817 14.261V11.8183C18.2817 11.0381 17.7013 10.481 16.9502 10.481V10.481ZM17.3381 14.2188C17.3381 14.49 17.1996 14.6898 16.9502 14.6898C16.6935 14.6898 16.5463 14.4798 16.5463 14.2188V11.9015C16.5463 11.6288 16.6717 11.426 16.9327 11.426C17.2156 11.426 17.3381 11.6215 17.3381 11.9015V14.2188V14.2188ZM20.7856 10.5219V14.3033C20.6733 14.4448 20.421 14.6767 20.2402 14.6767C20.0433 14.6767 19.9938 14.541 19.9938 14.3412V10.5219H19.0677V14.6854C19.0677 15.1769 19.2179 15.575 19.7138 15.575C19.9938 15.575 20.3831 15.4292 20.7842 14.9537V15.5035H21.7102V10.5219H20.7856V10.5219ZM22.3913 20.6267C22.0646 20.6267 21.996 20.8571 21.996 21.1838V21.6635H22.7763V21.1838C22.7777 20.8615 22.7092 20.6267 22.3913 20.6267ZM18.9627 20.6558L18.7804 20.8002V23.7563L18.9904 23.924C19.1348 23.9969 19.3433 24.0027 19.4425 23.8744C19.4921 23.8073 19.5183 23.6979 19.5183 23.5477V21.0977C19.5183 20.9373 19.4877 20.8163 19.425 20.7331C19.3171 20.5931 19.1173 20.5771 18.9627 20.6558V20.6558ZM22.4817 16.8671C20.5844 16.7373 14.4127 16.7388 12.5169 16.8671C10.4665 17.0085 10.2244 18.2481 10.2083 21.5104C10.2244 24.7669 10.4635 26.0123 12.5169 26.1538C14.4127 26.2821 20.5844 26.2835 22.4817 26.1538C24.5335 26.0138 24.7756 24.7742 24.7917 21.5104C24.7756 18.254 24.5365 17.0085 22.4817 16.8671ZM13.4954 24.6604H12.5023V19.1625H11.4742V18.2292H14.5235V19.1625H13.4954V24.6604V24.6604ZM17.0304 24.6604H16.1481V24.1369C15.9863 24.3294 15.8156 24.4767 15.6406 24.5773C15.1652 24.85 14.5133 24.8442 14.5133 23.8817V19.915H15.3942V23.5521C15.3942 23.7431 15.4408 23.8715 15.629 23.8715C15.801 23.8715 16.0402 23.6513 16.1467 23.5156V19.9135H17.029V24.6604H17.0304ZM20.4254 23.676C20.4254 24.2638 20.2067 24.7202 19.619 24.7202C19.2952 24.7202 19.0269 24.6021 18.7804 24.2944V24.659H17.8908V18.2292H18.7804V20.3C18.9802 20.0565 19.25 19.8567 19.565 19.8567C20.211 19.8567 20.4254 20.4021 20.4254 21.0452V23.676ZM23.6848 22.3985H21.9975V23.294C21.9975 23.6498 22.0281 23.9575 22.384 23.9575C22.7558 23.9575 22.7792 23.7067 22.7792 23.294V22.9644H23.6863V23.3202C23.6863 24.2346 23.294 24.7887 22.365 24.7887C21.5235 24.7887 21.0919 24.1748 21.0919 23.3202V21.191C21.0919 20.3671 21.6358 19.7954 22.4321 19.7954C23.2779 19.7954 23.6863 20.3335 23.6863 21.191V22.3985H23.6848ZM17.5 2.91667C25.5413 2.91667 32.0833 9.45875 32.0833 17.5C32.0833 25.5413 25.5413 32.0833 17.5 32.0833C9.45875 32.0833 2.91667 25.5413 2.91667 17.5C2.91667 9.45875 9.45875 2.91667 17.5 2.91667ZM17.5 0C7.83563 0 0 7.83563 0 17.5C0 27.1644 7.83563 35 17.5 35C27.1644 35 35 27.1644 35 17.5C35 7.83563 27.1644 0 17.5 0Z" fill="#FD4C4C"/>
</svg>
